<svg version="1.1" id="Layer_1" xmlns="http://www.w3.org/2000/svg" xmlns:xlink="http://www.w3.org/1999/xlink" x="0px" y="0px"
	 width="100%" viewBox="0 0 500 500" enable-background="new 0 0 500 500" xml:space="preserve">
<path fill="#5ADBE4" opacity="1.000000" stroke="none" 
	d="
M37.000000,501.000000 
	C25.009184,501.000000 13.018368,501.000000 1.044702,501.000000 
	C1.044702,334.333313 1.044702,167.666656 1.044702,1.000000 
	C12.747164,1.000000 24.404922,1.000000 36.531342,1.468657 
	C37.000000,168.291550 37.000000,334.645782 37.000000,501.000000 
z"/>
<path fill="#53D0E0" opacity="1.000000" stroke="none" 
	d="
M37.468658,501.000000 
	C37.000000,334.645782 37.000000,168.291550 37.000000,1.468657 
	C48.354229,1.000000 59.708454,1.000000 71.531342,1.468657 
	C72.004738,113.648781 72.009476,225.360245 71.798355,337.358521 
	C70.771194,339.563873 69.273247,341.476501 69.256683,343.401886 
	C69.117668,359.563446 69.250313,375.727325 68.994232,392.149292 
	C68.124908,394.922150 67.081032,397.434723 67.072906,399.950623 
	C66.964127,433.633453 67.000046,467.316803 67.000000,501.000000 
	C57.312439,501.000000 47.624878,501.000000 37.468658,501.000000 
z"/>
<path fill="#034FAF" opacity="1.000000" stroke="none" 
	d="
M470.000000,1.000000 
	C480.325287,1.000000 490.650574,1.000000 500.957031,1.000000 
	C500.957031,167.666672 500.957031,334.333344 500.957031,501.000000 
	C490.921814,501.000000 480.929565,501.000000 470.468658,500.531342 
	C470.000000,333.708466 470.000000,167.354233 470.000000,1.000000 
z"/>
<path fill="#0958B2" opacity="1.000000" stroke="none" 
	d="
M469.531342,1.000000 
	C470.000000,167.354233 470.000000,333.708466 470.000000,500.531342 
	C461.645782,501.000000 453.291534,501.000000 444.468658,500.531342 
	C443.999969,467.277832 444.035309,434.492920 443.942322,401.708313 
	C443.933502,398.601837 443.119934,395.497650 442.780945,392.127930 
	C442.849884,390.384491 442.817871,388.905548 442.966064,387.017700 
	C443.430847,383.818604 443.963409,381.028442 443.964325,378.238129 
	C444.005493,252.492081 444.000000,126.746040 444.000000,1.000000 
	C452.354218,1.000000 460.708466,1.000000 469.531342,1.000000 
z"/>
<path fill="#156CBA" opacity="1.000000" stroke="none" 
	d="
M373.000000,1.000000 
	C381.020905,1.000000 389.041809,1.000000 397.531372,1.467854 
	C398.000000,168.290466 398.000000,334.645233 398.000000,501.000000 
	C390.645752,501.000000 383.291504,501.000000 375.468628,500.531342 
	C375.000000,486.433319 375.029022,472.803925 374.993347,459.174652 
	C374.935883,437.237701 374.835724,415.300903 375.050262,393.202209 
	C376.508881,391.023010 378.638763,389.024292 378.678101,386.985291 
	C378.965851,372.058075 378.812836,357.122711 378.851776,342.190033 
	C378.860535,338.839722 377.698120,336.721313 373.914185,336.381714 
	C373.549530,333.191589 373.035553,330.395782 373.034515,327.599823 
	C372.993866,218.733215 373.000000,109.866608 373.000000,1.000000 
z"/>
<path fill="#1F7CC0" opacity="1.000000" stroke="none" 
	d="
M340.000000,501.000000 
	C335.643097,501.000000 331.286194,501.000000 326.464661,500.531342 
	C325.990692,433.007935 325.981384,365.953217 326.226837,298.640503 
	C327.347473,296.370026 328.818848,294.399048 328.960419,292.336792 
	C329.319641,287.103699 329.414062,281.799652 328.941315,276.585052 
	C328.713898,274.076111 326.966217,271.704987 325.928040,268.786224 
	C325.966095,179.200638 325.983032,90.100319 326.000000,1.000000 
	C333.020966,1.000000 340.041901,1.000000 347.531433,1.468657 
	C348.000000,113.851852 348.010742,225.766403 347.946838,337.680908 
	C347.944977,340.958588 347.155273,344.235840 346.460876,347.290894 
	C344.260284,344.363739 342.694916,341.249969 340.273560,339.100342 
	C338.699585,337.702942 335.745117,336.968201 333.662323,337.343140 
	C332.222015,337.602356 330.196442,340.245758 330.170105,341.852264 
	C329.908661,357.811615 329.940765,373.777802 330.147797,389.738739 
	C330.163177,390.924164 332.451935,393.206146 333.191284,393.020203 
	C334.700256,392.640656 336.120697,391.096954 337.089081,389.695282 
	C337.639526,388.898560 337.240723,387.434540 337.241211,386.271027 
	C337.245850,375.462067 337.227844,364.653076 337.262238,353.844238 
	C337.267426,352.212677 337.508820,350.581848 337.640961,348.950684 
	C338.040161,348.908966 338.439392,348.867249 338.838593,348.825531 
	C340.170624,350.886505 341.502686,352.947510 342.471863,355.110626 
	C341.406036,357.415314 340.095215,359.616272 340.089569,361.820587 
	C339.971161,408.213531 340.000031,454.606781 340.000000,501.000000 
z"/>
<path fill="#1A74BD" opacity="1.000000" stroke="none" 
	d="
M346.732910,347.513275 
	C347.155273,344.235840 347.944977,340.958588 347.946838,337.680908 
	C348.010742,225.766403 348.000000,113.851852 348.000000,1.468657 
	C356.020905,1.000000 364.041809,1.000000 372.531372,1.000000 
	C373.000000,109.866608 372.993866,218.733215 373.034515,327.599823 
	C373.035553,330.395782 373.549530,333.191589 373.591919,336.583313 
	C372.691620,339.121246 371.496674,341.049988 371.447052,343.007751 
	C371.232819,351.461365 371.353760,359.923462 371.353058,368.382477 
	C371.352692,372.749634 371.352997,377.116791 371.352997,381.483917 
	C370.934052,381.593536 370.515137,381.703156 370.096191,381.812775 
	C362.308441,370.379608 354.520660,358.946442 346.732910,347.513275 
z"/>
<path fill="#4DC6DC" opacity="1.000000" stroke="none" 
	d="
M72.014221,337.071716 
	C72.009476,225.360245 72.004738,113.648781 72.000000,1.468657 
	C80.354233,1.000000 88.708466,1.000000 97.531349,1.468657 
	C98.000000,119.584869 98.007385,237.232422 97.955048,354.879944 
	C97.953812,357.657074 97.282860,360.433838 96.650116,363.000977 
	C91.440315,355.695984 86.377548,348.684570 81.622383,341.470398 
	C79.226318,337.835266 76.325615,336.122192 72.014221,337.071716 
z"/>
<path fill="#45B9D7" opacity="1.000000" stroke="none" 
	d="
M123.000000,1.000000 
	C129.021149,1.000000 135.042297,1.000000 141.531723,1.468657 
	C142.000000,26.202921 141.971466,50.468571 142.009232,74.734116 
	C142.038193,93.346260 142.150757,111.958275 141.996307,130.786392 
	C135.248947,137.374466 134.920334,143.047379 140.294922,150.940887 
	C139.639954,153.025879 139.044785,154.786957 139.041504,156.549149 
	C138.984619,187.186417 138.978348,217.823868 139.053558,248.461044 
	C139.058197,250.351212 139.829742,252.239487 140.082336,254.441803 
	C134.620331,262.668823 135.510315,268.291626 143.067169,275.261108 
	C143.031525,296.130127 143.017868,316.513977 142.642532,337.016449 
	C141.186890,339.112762 139.181396,341.073700 139.144577,343.070862 
	C138.874588,357.722870 138.923264,372.382965 139.088196,387.038086 
	C139.110367,389.009216 140.344543,390.966675 141.013336,393.403503 
	C141.006119,429.584320 141.003052,465.292175 141.000000,501.000000 
	C135.311951,501.000000 129.623917,501.000000 123.467941,500.534973 
	C123.000000,333.713318 123.000000,167.356659 123.000000,1.000000 
z"/>
<path fill="#0D5EB5" opacity="1.000000" stroke="none" 
	d="
M443.531433,1.000000 
	C444.000000,126.746040 444.005493,252.492081 443.964325,378.238129 
	C443.963409,381.028442 443.430847,383.818604 442.676514,386.827759 
	C437.091339,380.463257 431.975952,373.879822 427.029724,366.906494 
	C427.764923,362.258881 428.331024,358.001190 429.037506,353.447968 
	C432.335144,349.993408 435.753448,347.042389 438.519287,343.571442 
	C439.604523,342.209503 439.228577,339.683289 439.518066,337.687286 
	C437.638977,338.052673 435.290558,337.835114 433.971954,338.896698 
	C430.517517,341.677734 427.512604,345.017090 424.019501,347.874023 
	C423.140289,344.761749 422.073730,341.909790 422.071594,339.057007 
	C421.987457,226.371399 422.000000,113.685692 422.000000,1.000000 
	C429.020966,1.000000 436.041901,1.000000 443.531433,1.000000 
z"/>
<path fill="#1165B7" opacity="1.000000" stroke="none" 
	d="
M398.467834,501.000000 
	C398.000000,334.645233 398.000000,168.290466 398.000000,1.467854 
	C400.700012,1.000000 403.400055,1.000000 406.613281,1.371256 
	C407.084320,5.373450 407.005524,9.004387 407.005310,12.635326 
	C406.998718,117.563210 407.010040,222.491089 406.953705,327.418945 
	C406.951935,330.707733 406.265259,333.996124 405.496582,337.199554 
	C400.846680,336.391083 399.931610,338.795624 399.957672,342.370483 
	C400.025726,351.701721 399.977966,361.033752 399.980621,370.365479 
	C399.982452,376.697632 399.784821,383.042114 400.160034,389.352295 
	C400.241516,390.723022 402.388031,391.970978 403.583435,393.275482 
	C404.791290,391.990967 406.370178,390.882721 407.090271,389.366547 
	C407.672729,388.140167 407.458038,386.378601 407.189087,384.930145 
	C405.601318,376.378967 409.648621,370.660126 416.780090,366.067291 
	C418.542450,368.462402 420.388733,370.971558 422.058167,373.897461 
	C421.587585,376.768066 421.041046,379.221619 421.037750,381.675903 
	C420.984406,421.450531 421.000000,461.225281 421.000000,501.000000 
	C413.645233,501.000000 406.290436,501.000000 398.467834,501.000000 
z"/>
<path fill="#48BDD9" opacity="1.000000" stroke="none" 
	d="
M122.542503,1.000000 
	C123.000000,167.356659 123.000000,333.713318 123.000000,500.534973 
	C118.309196,501.000000 113.618385,501.000000 108.463791,500.531342 
	C108.000000,466.442352 107.980904,432.821960 108.046181,399.201752 
	C108.050217,397.123657 108.718750,395.046844 109.427979,393.007996 
	C115.777008,393.640045 117.927032,392.151398 117.967735,386.755920 
	C118.079559,371.931427 118.015465,357.105560 118.001343,342.280212 
	C117.997566,338.316284 116.244301,336.323700 112.049469,336.736237 
	C112.023186,224.502731 112.011589,112.751366 112.000000,1.000000 
	C115.361671,1.000000 118.723335,1.000000 122.542503,1.000000 
z"/>
<path fill="#1165B7" opacity="1.000000" stroke="none" 
	d="
M405.897888,337.284698 
	C406.265259,333.996124 406.951935,330.707733 406.953705,327.418945 
	C407.010040,222.491089 406.998718,117.563210 407.005310,12.635326 
	C407.005524,9.004387 407.084320,5.373450 407.063232,1.371256 
	C411.689240,1.000000 416.378510,1.000000 421.533875,1.000000 
	C422.000000,113.685692 421.987457,226.371399 422.071594,339.057007 
	C422.073730,341.909790 423.140289,344.761749 423.869263,348.182159 
	C418.710022,353.867859 413.391968,358.985504 407.227692,364.917480 
	C407.227692,357.346649 407.336060,350.638916 407.166656,343.938202 
	C407.110352,341.711090 406.341156,339.502014 405.897888,337.284698 
z"/>
<path fill="#4AC0DA" opacity="1.000000" stroke="none" 
	d="
M111.535355,1.000000 
	C112.011589,112.751366 112.023186,224.502731 111.878502,337.061707 
	C111.349236,339.948456 110.676041,342.024353 110.653908,344.107208 
	C110.542908,354.550232 110.616844,364.995117 110.587303,375.439270 
	C110.582458,377.149597 110.385536,378.859375 110.277397,380.569397 
	C109.824883,380.730377 109.372360,380.891327 108.919846,381.052307 
	C104.921318,375.105133 100.922798,369.157959 96.924278,363.210785 
	C97.282860,360.433838 97.953812,357.657074 97.955048,354.879944 
	C98.007385,237.232422 98.000000,119.584869 98.000000,1.468657 
	C102.356903,1.000000 106.713799,1.000000 111.535355,1.000000 
z"/>
<path fill="#2586C4" opacity="1.000000" stroke="none" 
	d="
M290.000000,1.000000 
	C296.354401,1.000000 302.708801,1.000000 309.531616,1.468657 
	C310.002014,95.857430 310.004028,189.777542 309.544159,283.778442 
	C303.723633,283.805359 298.364960,283.751495 293.012238,283.321045 
	C293.132019,278.508453 293.343323,274.072357 293.339447,269.636505 
	C293.331238,260.258667 293.137024,250.880814 293.154510,241.503220 
	C293.176605,229.666565 293.374969,217.830322 293.421326,205.993591 
	C293.470917,193.332550 293.575867,180.668762 293.363922,168.011078 
	C293.274231,162.654068 292.437317,157.309601 292.152100,151.692276 
	C299.910828,143.490753 299.132874,136.521469 289.924988,128.891388 
	C289.964203,85.932732 289.982086,43.466366 290.000000,1.000000 
z"/>
<path fill="#3097CA" opacity="1.000000" stroke="none" 
	d="
M258.000000,501.000000 
	C249.645767,501.000000 241.291534,501.000000 232.468658,500.531342 
	C232.002014,448.094391 232.004013,396.126068 232.338425,344.056702 
	C237.059174,341.840576 236.266449,339.480408 232.999786,336.534424 
	C233.004227,323.756012 233.008514,311.446442 233.479034,299.098602 
	C240.633774,299.083527 247.322266,299.106750 254.008240,299.590454 
	C254.006577,312.269928 254.007446,324.488892 253.620193,336.801575 
	C252.155930,338.853424 250.185471,340.794342 250.147247,342.772552 
	C249.876953,356.757202 249.994125,370.749481 250.006866,384.739349 
	C250.013184,391.673431 250.949142,392.639679 258.035278,393.578064 
	C258.375397,396.780518 258.953033,399.572540 258.959106,402.365845 
	C259.024536,432.455383 259.026184,462.545227 258.956390,492.634766 
	C258.949921,495.423920 258.333282,498.211609 258.000000,501.000000 
z"/>
<path fill="#2788C5" opacity="1.000000" stroke="none" 
	d="
M307.000000,501.000000 
	C299.312408,501.000000 291.624847,501.000000 283.468628,500.531342 
	C283.001831,464.431061 283.003662,428.799438 283.368225,393.081787 
	C284.808258,391.572845 285.885559,390.149872 286.962830,388.726929 
	C285.311615,387.676636 283.660431,386.626343 282.008942,385.133972 
	C282.012817,356.176270 282.016968,327.660614 282.487244,299.110779 
	C290.973389,299.097321 298.993439,299.118073 307.010071,299.598755 
	C307.006042,312.348419 307.005371,324.638092 306.592285,336.934204 
	C302.438080,336.720062 301.837921,339.061890 301.844452,342.081543 
	C301.877533,357.364868 301.921448,372.648743 301.813599,387.931396 
	C301.787079,391.688690 303.021240,393.665802 307.009857,393.653076 
	C307.005585,429.739594 307.002808,465.369781 307.000000,501.000000 
z"/>
<path fill="#2281C2" opacity="1.000000" stroke="none" 
	d="
M310.006012,283.697662 
	C310.004028,189.777542 310.002014,95.857430 310.000000,1.468657 
	C315.022095,1.000000 320.044189,1.000000 325.533142,1.000000 
	C325.983032,90.100319 325.966095,179.200638 325.621887,268.739624 
	C324.888306,269.102295 324.481964,269.026306 323.976379,268.612976 
	C322.665344,265.326904 320.769684,263.838959 317.328094,264.565002 
	C313.607178,265.349976 314.039307,268.161102 313.961914,270.729248 
	C313.867249,273.869598 313.766693,277.026489 313.981537,280.154755 
	C314.196259,283.281433 313.085480,284.482117 310.006012,283.697662 
z"/>
<path fill="#3BA9D1" opacity="1.000000" stroke="none" 
	d="
M191.000000,501.000000 
	C186.310745,501.000000 181.621490,501.000000 176.466125,500.531342 
	C176.000000,464.375122 176.000000,428.687561 176.247467,392.744507 
	C179.206619,387.774719 178.118103,386.472717 171.004211,385.462646 
	C171.023041,379.573425 171.044800,374.146515 171.432129,368.564026 
	C172.870407,367.154419 173.943115,365.900391 175.015808,364.646332 
	C173.360138,363.580414 171.704453,362.514496 170.036926,361.019531 
	C170.021362,355.113220 170.017639,349.635895 170.435944,344.103088 
	C171.685593,344.033295 172.681671,344.310394 173.308151,343.948181 
	C174.948120,343.000153 176.426651,341.772919 177.969543,340.656982 
	C176.467636,339.469818 175.106583,337.978577 173.417206,337.196198 
	C172.168060,336.617584 170.491348,336.962219 169.003937,336.433411 
	C168.995499,316.123444 168.988251,296.275604 169.443634,276.346191 
	C177.594376,275.798584 185.282486,275.332520 192.978088,275.345886 
	C192.991684,296.182770 192.997772,316.540222 192.666595,337.005005 
	C188.192993,338.676300 188.312729,341.058868 191.012543,344.410919 
	C191.005798,396.922272 191.002899,448.961151 191.000000,501.000000 
z"/>
<path fill="#2281C2" opacity="1.000000" stroke="none" 
	d="
M307.468262,501.000000 
	C307.002808,465.369781 307.005585,429.739594 307.312225,393.384827 
	C308.081543,390.966492 308.939087,389.275452 308.951111,387.578430 
	C309.056946,372.641602 309.085388,357.702911 308.923279,342.767120 
	C308.902069,340.813965 307.673859,338.873901 307.004700,336.927795 
	C307.005371,324.638092 307.006042,312.348419 307.475769,299.557007 
	C313.953918,299.003021 319.962982,298.950745 325.972076,298.898468 
	C325.981384,365.953217 325.990692,433.007935 326.000000,500.531342 
	C319.978851,501.000000 313.957703,501.000000 307.468262,501.000000 
z"/>
<path fill="#329ACB" opacity="1.000000" stroke="none" 
	d="
M223.000000,1.000000 
	C229.687637,1.000000 236.375290,1.000000 243.531464,1.468657 
	C243.996307,44.244099 243.992599,86.550880 243.657867,128.982941 
	C236.340744,132.659485 233.488602,137.505447 234.801788,143.592789 
	C236.281616,150.452637 240.491211,153.632736 248.973022,153.893723 
	C251.800827,153.980743 253.339935,154.678574 253.169678,157.821198 
	C252.955246,161.779419 252.965775,165.749863 252.424622,169.566833 
	C242.648834,169.214462 233.327682,169.010269 223.975159,168.397934 
	C223.629181,165.031174 223.043442,162.072845 223.040314,159.113892 
	C222.984802,106.409309 223.000015,53.704647 223.000000,1.000000 
z"/>
<path fill="#2A8DC6" opacity="1.000000" stroke="none" 
	d="
M289.531372,1.000000 
	C289.982086,43.466366 289.964203,85.932732 289.471130,128.793808 
	C280.991943,128.991898 272.987885,128.795273 264.987000,128.155151 
	C264.993469,85.474449 264.996735,43.237225 265.000000,1.000000 
	C273.020905,1.000000 281.041809,1.000000 289.531372,1.000000 
z"/>
<path fill="#36A0CE" opacity="1.000000" stroke="none" 
	d="
M222.531723,1.000000 
	C223.000015,53.704647 222.984802,106.409309 223.040314,159.113892 
	C223.043442,162.072845 223.629181,165.031174 223.516815,168.466095 
	C218.536346,169.658081 213.982803,170.373779 209.106537,171.093506 
	C206.518661,168.399048 204.253510,165.700562 202.350922,162.850494 
	C203.142334,160.517303 203.942612,158.336182 203.945572,156.153992 
	C204.015686,104.436066 204.000000,52.718021 204.000000,1.000000 
	C210.021149,1.000000 216.042297,1.000000 222.531723,1.000000 
z"/>
<path fill="#349ECD" opacity="1.000000" stroke="none" 
	d="
M232.006012,344.157776 
	C232.004013,396.126068 232.002014,448.094391 232.000000,500.531342 
	C225.312363,501.000000 218.624710,501.000000 211.468445,500.531342 
	C210.999725,467.157867 210.976944,434.253021 211.042984,401.348328 
	C211.048218,398.733643 211.668564,396.120209 212.395264,393.389618 
	C213.861908,391.330627 215.801697,389.415894 215.864944,387.441101 
	C216.183105,377.507050 216.011383,367.557281 216.011612,357.613037 
	C216.011703,353.202515 216.011627,348.792023 216.011627,344.157776 
	C221.794342,344.157776 226.900177,344.157776 232.006012,344.157776 
z"/>
<path fill="#39A4CF" opacity="1.000000" stroke="none" 
	d="
M212.003052,393.506195 
	C211.668564,396.120209 211.048218,398.733643 211.042984,401.348328 
	C210.976944,434.253021 210.999725,467.157867 210.999908,500.531342 
	C204.645599,501.000000 198.291214,501.000000 191.468414,501.000000 
	C191.002899,448.961151 191.005798,396.922272 191.479492,344.420532 
	C197.366928,343.957642 202.783585,343.957642 208.813019,343.957642 
	C208.813019,346.307739 208.812927,348.077179 208.813034,349.846619 
	C208.813797,362.425110 208.675568,375.006714 208.958023,387.578888 
	C209.002899,389.576447 210.940506,391.531494 212.003052,393.506195 
z"/>
<path fill="#39A6D0" opacity="1.000000" stroke="none" 
	d="
M203.531723,1.000000 
	C204.000000,52.718021 204.015686,104.436066 203.945572,156.153992 
	C203.942612,158.336182 203.142334,160.517303 202.063141,162.680435 
	C195.241699,154.784561 189.070633,146.907150 183.269714,138.881653 
	C184.093246,136.564148 184.938354,134.395416 184.942184,132.225220 
	C185.019440,88.483589 185.000000,44.741776 185.000000,1.000000 
	C191.021149,1.000000 197.042297,1.000000 203.531723,1.000000 
z"/>
<path fill="#4FC8DD" opacity="1.000000" stroke="none" 
	d="
M67.468582,501.000000 
	C67.000046,467.316803 66.964127,433.633453 67.072906,399.950623 
	C67.081032,397.434723 68.124908,394.922150 69.326675,392.307098 
	C75.358261,393.671783 76.626106,392.854858 76.673584,387.402954 
	C76.764641,376.947052 76.703590,366.489868 76.705452,356.033203 
	C76.705879,353.669067 76.705521,351.304932 76.705521,348.940796 
	C77.136780,348.853027 77.568039,348.765259 77.999306,348.677490 
	C82.156540,354.806335 86.313782,360.935211 90.274460,367.504486 
	C89.718628,370.550507 89.050354,373.155579 89.046265,375.761719 
	C88.980774,417.507751 89.000031,459.253876 89.000000,501.000000 
	C81.979050,501.000000 74.958107,501.000000 67.468582,501.000000 
z"/>
<path fill="#41B2D5" opacity="1.000000" stroke="none" 
	d="
M142.226151,130.570343 
	C142.150757,111.958275 142.038193,93.346260 142.009232,74.734116 
	C141.971466,50.468571 142.000000,26.202921 142.000000,1.468657 
	C149.020950,1.000000 156.041901,1.000000 163.531433,1.468657 
	C163.996078,44.150925 163.992157,86.364532 163.525635,128.652237 
	C156.117401,129.341003 149.171783,129.955673 142.226151,130.570343 
z"/>
<path fill="#3DACD2" opacity="1.000000" stroke="none" 
	d="
M163.988235,128.578140 
	C163.992157,86.364532 163.996078,44.150925 164.000000,1.468657 
	C170.687637,1.000000 177.375290,1.000000 184.531464,1.000000 
	C185.000000,44.741776 185.019440,88.483589 184.942184,132.225220 
	C184.938354,134.395416 184.093246,136.564148 182.993256,138.700104 
	C177.919876,132.223526 172.454361,127.670692 163.988235,128.578140 
z"/>
<path fill="#2E94C9" opacity="1.000000" stroke="none" 
	d="
M264.531464,1.000000 
	C264.996735,43.237225 264.993469,85.474449 264.524170,128.229279 
	C257.368408,128.783813 250.678665,128.820740 243.988907,128.857666 
	C243.992599,86.550880 243.996307,44.244099 244.000000,1.468657 
	C250.687637,1.000000 257.375275,1.000000 264.531464,1.000000 
z"/>
<path fill="#0D5FB5" opacity="1.000000" stroke="none" 
	d="
M421.468628,501.000000 
	C421.000000,461.225281 420.984406,421.450531 421.037750,381.675903 
	C421.041046,379.221619 421.587585,376.768066 422.343628,374.110657 
	C427.396881,379.718567 431.808655,385.689270 436.719604,391.216431 
	C437.790802,392.421967 440.646271,392.042114 442.679962,392.392395 
	C443.119934,395.497650 443.933502,398.601837 443.942322,401.708313 
	C444.035309,434.492920 443.999969,467.277832 444.000000,500.531342 
	C436.645752,501.000000 429.291504,501.000000 421.468628,501.000000 
z"/>
<path fill="#2B8FC7" opacity="1.000000" stroke="none" 
	d="
M283.005493,393.167816 
	C283.003662,428.799438 283.001831,464.431061 283.000000,500.531342 
	C274.979095,501.000000 266.958191,501.000000 258.468628,501.000000 
	C258.333282,498.211609 258.949921,495.423920 258.956390,492.634766 
	C259.026184,462.545227 259.024536,432.455383 258.959106,402.365845 
	C258.953033,399.572540 258.375397,396.780518 258.499817,393.515747 
	C266.959473,393.085052 274.982483,393.126434 283.005493,393.167816 
z"/>
<path fill="#1A74BD" opacity="1.000000" stroke="none" 
	d="
M374.753601,393.364044 
	C374.835724,415.300903 374.935883,437.237701 374.993347,459.174652 
	C375.029022,472.803925 375.000000,486.433319 375.000000,500.531342 
	C367.979034,501.000000 360.958099,501.000000 353.468567,500.531342 
	C353.000000,459.783630 352.981964,419.504578 353.044342,379.225616 
	C353.048126,376.782623 353.691040,374.340607 354.348511,372.046783 
	C358.661560,377.798187 362.801819,383.308502 366.607544,389.040985 
	C368.640472,392.103180 371.042389,393.792999 374.753601,393.364044 
z"/>
<path fill="#4BC3DB" opacity="1.000000" stroke="none" 
	d="
M89.468269,501.000000 
	C89.000031,459.253876 88.980774,417.507751 89.046265,375.761719 
	C89.050354,373.155579 89.718628,370.550507 90.521423,367.774231 
	C97.002670,376.058838 103.040398,384.514160 109.078125,392.969452 
	C108.718750,395.046844 108.050217,397.123657 108.046181,399.201752 
	C107.980904,432.821960 108.000000,466.442352 108.000000,500.531342 
	C101.978844,501.000000 95.957695,501.000000 89.468269,501.000000 
z"/>
<path fill="#41B3D5" opacity="1.000000" stroke="none" 
	d="
M141.467941,501.000000 
	C141.003052,465.292175 141.006119,429.584320 141.479889,393.420044 
	C147.635483,393.033295 153.320343,393.103027 159.003967,393.630554 
	C159.001816,429.725586 159.000900,465.362793 159.000000,501.000000 
	C153.311966,501.000000 147.623917,501.000000 141.467941,501.000000 
z"/>
<path fill="#3EAED3" opacity="1.000000" stroke="none" 
	d="
M159.467606,501.000000 
	C159.000900,465.362793 159.001816,429.725586 159.467896,393.570770 
	C165.288727,393.035431 170.644363,393.017700 176.000000,393.000000 
	C176.000000,428.687561 176.000000,464.375122 176.000000,500.531342 
	C170.645065,501.000000 165.290146,501.000000 159.467606,501.000000 
z"/>
<path fill="#1D79BF" opacity="1.000000" stroke="none" 
	d="
M354.036530,371.898132 
	C353.691040,374.340607 353.048126,376.782623 353.044342,379.225616 
	C352.981964,419.504578 353.000000,459.783630 353.000000,500.531342 
	C348.975464,501.000000 344.950897,501.000000 340.463196,501.000000 
	C340.000031,454.606781 339.971161,408.213531 340.089569,361.820587 
	C340.095215,359.616272 341.406036,357.415314 342.730652,355.339355 
	C346.913696,360.943329 350.475098,366.420746 354.036530,371.898132 
z"/>
<path fill="#ECEDEA" opacity="1.000000" stroke="none" 
	d="
M109.427979,393.007996 
	C103.040398,384.514160 97.002670,376.058838 90.717987,367.333801 
	C86.313782,360.935211 82.156540,354.806335 77.999306,348.677490 
	C77.568039,348.765259 77.136780,348.853027 76.705521,348.940796 
	C76.705521,351.304932 76.705879,353.669067 76.705452,356.033203 
	C76.703590,366.489868 76.764641,376.947052 76.673584,387.402954 
	C76.626106,392.854858 75.358261,393.671783 69.633614,392.048340 
	C69.250313,375.727325 69.117668,359.563446 69.256683,343.401886 
	C69.273247,341.476501 70.771194,339.563873 71.798355,337.358521 
	C76.325615,336.122192 79.226318,337.835266 81.622383,341.470398 
	C86.377548,348.684570 91.440315,355.695984 96.650116,363.000977 
	C100.922798,369.157959 104.921318,375.105133 108.919846,381.052307 
	C109.372360,380.891327 109.824883,380.730377 110.277397,380.569397 
	C110.385536,378.859375 110.582458,377.149597 110.587303,375.439270 
	C110.616844,364.995117 110.542908,354.550232 110.653908,344.107208 
	C110.676041,342.024353 111.349236,339.948456 111.893188,337.543884 
	C116.244301,336.323700 117.997566,338.316284 118.001343,342.280212 
	C118.015465,357.105560 118.079559,371.931427 117.967735,386.755920 
	C117.927032,392.151398 115.777008,393.640045 109.427979,393.007996 
z"/>
<path fill="#ECEBE9" opacity="1.000000" stroke="none" 
	d="
M442.780945,392.127930 
	C440.646271,392.042114 437.790802,392.421967 436.719604,391.216431 
	C431.808655,385.689270 427.396881,379.718567 422.520447,373.693909 
	C420.388733,370.971558 418.542450,368.462402 416.780090,366.067291 
	C409.648621,370.660126 405.601318,376.378967 407.189087,384.930145 
	C407.458038,386.378601 407.672729,388.140167 407.090271,389.366547 
	C406.370178,390.882721 404.791290,391.990967 403.583435,393.275482 
	C402.388031,391.970978 400.241516,390.723022 400.160034,389.352295 
	C399.784821,383.042114 399.982452,376.697632 399.980621,370.365479 
	C399.977966,361.033752 400.025726,351.701721 399.957672,342.370483 
	C399.931610,338.795624 400.846680,336.391083 405.496582,337.199554 
	C406.341156,339.502014 407.110352,341.711090 407.166656,343.938202 
	C407.336060,350.638916 407.227692,357.346649 407.227692,364.917480 
	C413.391968,358.985504 418.710022,353.867859 424.178284,348.442078 
	C427.512604,345.017090 430.517517,341.677734 433.971954,338.896698 
	C435.290558,337.835114 437.638977,338.052673 439.518066,337.687286 
	C439.228577,339.683289 439.604523,342.209503 438.519287,343.571442 
	C435.753448,347.042389 432.335144,349.993408 428.728149,353.595154 
	C425.969727,356.082031 423.661072,358.126190 421.004700,360.478302 
	C423.315887,363.169250 425.088226,365.232819 426.860565,367.296356 
	C431.975952,373.879822 437.091339,380.463257 442.496277,387.236633 
	C442.817871,388.905548 442.849884,390.384491 442.780945,392.127930 
z"/>
<path fill="#EAEAE9" opacity="1.000000" stroke="none" 
	d="
M354.348511,372.046783 
	C350.475098,366.420746 346.913696,360.943329 343.093506,355.237213 
	C341.502686,352.947510 340.170624,350.886505 338.838593,348.825531 
	C338.439392,348.867249 338.040161,348.908966 337.640961,348.950684 
	C337.508820,350.581848 337.267426,352.212677 337.262238,353.844238 
	C337.227844,364.653076 337.245850,375.462067 337.241211,386.271027 
	C337.240723,387.434540 337.639526,388.898560 337.089081,389.695282 
	C336.120697,391.096954 334.700256,392.640656 333.191284,393.020203 
	C332.451935,393.206146 330.163177,390.924164 330.147797,389.738739 
	C329.940765,373.777802 329.908661,357.811615 330.170105,341.852264 
	C330.196442,340.245758 332.222015,337.602356 333.662323,337.343140 
	C335.745117,336.968201 338.699585,337.702942 340.273560,339.100342 
	C342.694916,341.249969 344.260284,344.363739 346.460846,347.290894 
	C354.520660,358.946442 362.308441,370.379608 370.096191,381.812775 
	C370.515137,381.703156 370.934052,381.593536 371.352997,381.483917 
	C371.352997,377.116791 371.352692,372.749634 371.353058,368.382477 
	C371.353760,359.923462 371.232819,351.461365 371.447052,343.007751 
	C371.496674,341.049988 372.691620,339.121246 373.681824,336.977570 
	C377.698120,336.721313 378.860535,338.839722 378.851776,342.190033 
	C378.812836,357.122711 378.965851,372.058075 378.678101,386.985291 
	C378.638763,389.024292 376.508881,391.023010 375.050293,393.202209 
	C371.042389,393.792999 368.640472,392.103180 366.607544,389.040985 
	C362.801819,383.308502 358.661560,377.798187 354.348511,372.046783 
z"/>
<path fill="#76AFD3" opacity="1.000000" stroke="none" 
	d="
M326.226837,298.640503 
	C319.962982,298.950745 313.953918,299.003021 307.479126,299.097076 
	C298.993439,299.118073 290.973389,299.097321 282.047791,299.065125 
	C279.087067,298.987427 277.031982,298.921143 274.983582,298.466492 
	C274.999512,296.775299 275.008698,295.472473 275.483093,294.120972 
	C289.551270,294.046967 303.154480,294.059448 316.757111,293.977936 
	C322.238831,293.945099 323.911774,292.251709 323.986053,286.863831 
	C324.068359,280.893372 324.050110,274.921539 324.075623,268.950287 
	C324.481964,269.026306 324.888306,269.102295 325.600800,269.224884 
	C326.966217,271.704987 328.713898,274.076111 328.941315,276.585052 
	C329.414062,281.799652 329.319641,287.103699 328.960419,292.336792 
	C328.818848,294.399048 327.347473,296.370026 326.226837,298.640503 
z"/>
<path fill="#254770" opacity="1.000000" stroke="none" 
	d="
M243.657867,128.982941 
	C250.678665,128.820740 257.368408,128.783813 264.520996,128.672760 
	C272.987885,128.795273 280.991943,128.991898 289.449829,129.286102 
	C299.132874,136.521469 299.910828,143.490753 291.776306,151.760895 
	C289.157715,152.709122 287.062805,153.991272 285.108551,153.804230 
	C279.948486,153.310303 278.687439,155.298233 278.719086,160.285721 
	C278.929047,193.389084 278.784424,226.494522 278.859009,259.599060 
	C278.875946,267.115021 276.714752,273.009064 268.472443,275.551941 
	C261.959808,276.789886 258.141937,273.285248 254.673599,269.066925 
	C250.499847,263.990601 246.325119,258.915070 242.015427,253.541412 
	C240.307770,251.407211 238.735504,249.570816 237.048492,247.421387 
	C233.609650,243.039352 230.285553,238.970352 226.853027,234.590958 
	C221.897110,228.408371 217.049637,222.536148 212.080872,216.355423 
	C207.496674,210.576233 203.033783,205.105560 198.405396,199.338562 
	C192.810272,192.223022 187.380630,185.403824 181.594284,178.136612 
	C181.149521,179.414093 180.868729,179.844955 180.868088,180.276245 
	C180.835144,202.575958 180.855545,224.875824 180.778198,247.175339 
	C180.768143,250.073242 182.142670,250.522842 184.691742,250.952789 
	C188.496506,251.594559 192.157562,253.088303 196.031860,254.529755 
	C201.428406,262.856262 200.530991,268.449127 192.970581,274.866425 
	C185.282486,275.332520 177.594376,275.798584 168.981506,276.271881 
	C159.734192,275.778046 151.411682,275.277008 143.089157,274.775970 
	C135.510315,268.291626 134.620331,262.668823 140.386414,254.266693 
	C143.942505,252.791473 146.997330,251.154831 150.131409,250.985535 
	C153.866287,250.783752 155.371399,249.984344 155.349396,245.895737 
	C155.192795,216.779221 155.226974,187.661331 155.317535,158.544266 
	C155.327866,155.223663 154.432846,154.027374 150.875031,153.734665 
	C147.398132,153.448624 144.040298,151.715424 140.630188,150.617477 
	C134.920334,143.047379 135.248947,137.374466 141.996307,130.786392 
	C149.171783,129.955673 156.117401,129.341003 163.525635,128.652237 
	C172.454361,127.670692 177.919876,132.223526 182.623108,138.848206 
	C189.070633,146.907150 195.241699,154.784561 201.700562,162.832016 
	C204.253510,165.700562 206.518661,168.399048 209.000885,171.461197 
	C211.147995,174.243942 213.078033,176.663025 215.129654,179.376617 
	C216.508133,181.129852 217.765060,182.588547 219.158539,184.345230 
	C221.454559,187.158615 223.614029,189.673996 225.851349,192.461578 
	C226.263123,193.163589 226.597031,193.593430 227.080643,194.323868 
	C230.459381,198.433487 233.688416,202.242493 237.011719,206.374786 
	C238.709503,208.567307 240.313004,210.436539 242.044449,212.607040 
	C245.479202,217.079605 248.785980,221.250916 252.092773,225.422226 
	C252.403488,225.217438 252.714218,225.012650 253.024948,224.807877 
	C253.024948,211.204620 253.024948,197.601379 253.103333,183.566208 
	C253.083130,181.668610 252.984528,180.202927 253.010498,178.327225 
	C253.049805,175.183151 252.964539,172.449081 252.879257,169.715027 
	C252.965775,165.749863 252.955246,161.779419 253.169678,157.821198 
	C253.339935,154.678574 251.800827,153.980743 248.973022,153.893723 
	C240.491211,153.632736 236.281616,150.452637 234.801788,143.592789 
	C233.488602,137.505447 236.340744,132.659485 243.657867,128.982941 
M155.496490,258.005554 
	C153.663681,258.007721 151.830292,257.981689 149.998169,258.018219 
	C146.507797,258.087738 144.115158,259.703857 144.042603,263.326477 
	C143.964279,267.236755 146.464996,268.957001 150.170364,268.967224 
	C162.000122,268.999847 173.830063,268.989349 185.659897,268.973877 
	C189.291122,268.969116 191.987900,267.515778 192.034592,263.559448 
	C192.081177,259.612701 189.471573,258.053101 185.803421,258.021729 
	C181.843842,257.987854 177.883743,258.014069 173.869614,258.014069 
	C173.869614,224.444717 173.869614,191.340012 173.869614,157.269485 
	C175.285904,158.924179 176.049515,159.770401 176.763199,160.656799 
	C198.908157,188.161209 221.048004,215.669769 243.189209,243.177185 
	C248.933380,250.313553 254.720398,257.416046 260.402496,264.601471 
	C262.411621,267.142120 264.975128,269.523407 267.896454,267.600464 
	C269.755066,266.377075 270.348083,263.080200 271.243896,260.616852 
	C271.618561,259.586609 271.307404,258.306793 271.307404,257.140472 
	C271.307495,222.483994 271.307465,187.827499 271.307465,153.171021 
	C271.307465,151.214020 271.307465,149.257034 271.307465,146.789871 
	C275.475830,146.789871 279.101868,146.813904 282.727417,146.783310 
	C286.563293,146.750946 290.005371,145.810150 289.963196,141.159058 
	C289.923340,136.764465 286.669220,135.939407 282.979248,135.949615 
	C271.649323,135.980988 260.319244,135.979004 248.989288,135.950775 
	C245.307510,135.941589 242.052460,136.741211 242.008667,141.157288 
	C241.962311,145.830048 245.402817,146.747101 249.232483,146.782608 
	C252.858383,146.816238 256.484833,146.789856 260.376617,146.789856 
	C260.376617,180.179871 260.376617,213.058899 260.376617,246.820847 
	C258.906097,245.220474 257.899475,244.242737 257.026367,243.157562 
	C232.280533,212.401428 207.527802,181.650772 182.822128,150.862381 
	C170.573914,135.598572 170.614868,135.565735 151.082367,135.960388 
	C150.915802,135.963760 150.749054,135.965469 150.582535,135.961975 
	C146.986343,135.886536 144.128067,137.070938 144.053040,141.109192 
	C143.973206,145.404984 146.981796,146.720963 150.732788,146.775223 
	C154.533752,146.830246 158.336151,146.787384 162.320923,146.787384 
	C162.320923,184.087906 162.320923,220.931610 162.320923,258.005554 
	C160.087982,258.005554 158.262985,258.005554 155.496490,258.005554 
z"/>
<path fill="#40B2D4" opacity="1.000000" stroke="none" 
	d="
M143.067169,275.261108 
	C151.411682,275.277008 159.734192,275.778046 168.518860,276.353394 
	C168.988251,296.275604 168.995499,316.123444 168.540009,336.508179 
	C159.719574,336.996002 151.361877,336.946899 143.004196,336.897827 
	C143.017868,316.513977 143.031525,296.130127 143.067169,275.261108 
z"/>
<path fill="#42B4D5" opacity="1.000000" stroke="none" 
	d="
M140.294922,150.940887 
	C144.040298,151.715424 147.398132,153.448624 150.875031,153.734665 
	C154.432846,154.027374 155.327866,155.223663 155.317535,158.544266 
	C155.226974,187.661331 155.192795,216.779221 155.349396,245.895737 
	C155.371399,249.984344 153.866287,250.783752 150.131409,250.985535 
	C146.997330,251.154831 143.942505,252.791473 140.548523,253.953552 
	C139.829742,252.239487 139.058197,250.351212 139.053558,248.461044 
	C138.978348,217.823868 138.984619,187.186417 139.041504,156.549149 
	C139.044785,154.786957 139.639954,153.025879 140.294922,150.940887 
z"/>
<path fill="#F0EEEB" opacity="1.000000" stroke="none" 
	d="
M142.642532,337.016418 
	C151.361877,336.946899 159.719574,336.996002 168.541183,336.970306 
	C170.491348,336.962219 172.168060,336.617584 173.417206,337.196198 
	C175.106583,337.978577 176.467636,339.469818 177.969543,340.656982 
	C176.426651,341.772919 174.948120,343.000153 173.308151,343.948181 
	C172.681671,344.310394 171.685593,344.033295 169.970474,344.036102 
	C161.664352,344.024658 154.245728,344.024658 146.220398,344.024658 
	C146.220398,349.460388 146.078308,354.389984 146.353790,359.296173 
	C146.402313,360.160522 148.186111,361.612000 149.187347,361.628174 
	C156.138382,361.740479 163.094360,361.545166 170.048767,361.448547 
	C171.704453,362.514496 173.360138,363.580414 175.015808,364.646332 
	C173.943115,365.900391 172.870407,367.154419 170.975555,368.428345 
	C162.275925,368.448242 154.398422,368.448242 146.495621,368.448242 
	C146.495621,374.669312 146.495621,380.075470 146.495621,385.924957 
	C154.868240,385.924957 162.937698,385.924957 171.007156,385.924957 
	C178.118103,386.472717 179.206619,387.774719 176.247467,392.744507 
	C170.644363,393.017700 165.288727,393.035431 159.469147,393.112946 
	C153.320343,393.103027 147.635483,393.033295 141.484039,392.947021 
	C140.344543,390.966675 139.110367,389.009216 139.088196,387.038086 
	C138.923264,372.382965 138.874588,357.722870 139.144577,343.070862 
	C139.181396,341.073700 141.186890,339.112762 142.642532,337.016418 
z"/>
<path fill="#1262B6" opacity="1.000000" stroke="none" 
	d="
M427.029724,366.906494 
	C425.088226,365.232819 423.315887,363.169250 421.004700,360.478302 
	C423.661072,358.126190 425.969727,356.082031 428.587738,353.890656 
	C428.331024,358.001190 427.764923,362.258881 427.029724,366.906494 
z"/>
<path fill="#298BC5" opacity="1.000000" stroke="none" 
	d="
M268.881561,275.466217 
	C276.714752,273.009064 278.875946,267.115021 278.859009,259.599060 
	C278.784424,226.494522 278.929047,193.389084 278.719086,160.285721 
	C278.687439,155.298233 279.948486,153.310303 285.108551,153.804230 
	C287.062805,153.991272 289.157715,152.709122 291.564270,152.028046 
	C292.437317,157.309601 293.274231,162.654068 293.363922,168.011078 
	C293.575867,180.668762 293.470917,193.332550 293.421326,205.993591 
	C293.374969,217.830322 293.176605,229.666565 293.154510,241.503220 
	C293.137024,250.880814 293.331238,260.258667 293.339447,269.636505 
	C293.343323,274.072357 293.132019,278.508453 292.549255,283.401215 
	C284.393860,283.806427 276.707367,283.754822 269.017975,283.262482 
	C268.970551,280.369904 268.926056,277.918060 268.881561,275.466217 
z"/>
<path fill="#F2EEEB" opacity="1.000000" stroke="none" 
	d="
M269.020874,283.703247 
	C276.707367,283.754822 284.393860,283.806427 292.543335,283.777832 
	C298.364960,283.751495 303.723633,283.805359 309.544159,283.778442 
	C313.085480,284.482117 314.196259,283.281433 313.981537,280.154755 
	C313.766693,277.026489 313.867249,273.869598 313.961914,270.729248 
	C314.039307,268.161102 313.607178,265.349976 317.328094,264.565002 
	C320.769684,263.838959 322.665344,265.326904 323.976410,268.612976 
	C324.050110,274.921539 324.068359,280.893372 323.986053,286.863831 
	C323.911774,292.251709 322.238831,293.945099 316.757111,293.977936 
	C303.154480,294.059448 289.551270,294.046967 275.016357,294.060303 
	C254.022278,294.102997 233.960098,294.157654 213.546906,294.123657 
	C207.141968,291.448730 206.748901,288.101471 212.468567,283.901123 
	C217.368744,283.926086 221.803268,283.926086 226.961472,283.926086 
	C226.961472,267.113251 226.961472,251.007294 226.961472,234.901337 
	C230.285553,238.970352 233.609650,243.039352 236.973450,247.906570 
	C236.983017,258.852692 237.128906,269.005615 236.838699,279.146057 
	C236.717422,283.383972 238.404480,284.488708 242.603973,283.803711 
	C251.713730,283.807251 260.367310,283.755249 269.020874,283.703247 
z"/>
<path fill="#2D90C8" opacity="1.000000" stroke="none" 
	d="
M274.976868,298.854889 
	C277.031982,298.921143 279.087067,298.987427 281.581665,299.099335 
	C282.016968,327.660614 282.012817,356.176270 281.547791,385.225677 
	C273.214447,385.759460 265.342041,385.759460 257.197845,385.759460 
	C257.197845,370.969269 257.191650,357.053223 257.203247,343.137177 
	C257.205475,340.446899 257.438690,337.676636 254.008331,336.707855 
	C254.007446,324.488892 254.006577,312.269928 254.474487,299.549927 
	C261.621124,298.984222 268.299011,298.919556 274.976868,298.854889 
z"/>
<path fill="#349ECD" opacity="1.000000" stroke="none" 
	d="
M233.012817,299.136902 
	C233.008514,311.446442 233.004227,323.756012 232.533218,336.577515 
	C226.045502,337.024841 220.024490,336.960266 214.002579,336.434021 
	C214.001129,325.870239 213.930695,315.767212 214.048065,305.666412 
	C214.078262,303.068604 214.699890,300.477600 215.428268,298.056519 
	C221.542068,298.532013 227.277451,298.834473 233.012817,299.136902 
z"/>
<path fill="#F0EEEA" opacity="1.000000" stroke="none" 
	d="
M214.003479,336.895660 
	C220.024490,336.960266 226.045502,337.024841 232.533081,337.046356 
	C236.266449,339.480408 237.059174,341.840576 232.338425,344.056702 
	C226.900177,344.157776 221.794342,344.157776 216.011627,344.157776 
	C216.011627,348.792023 216.011703,353.202515 216.011612,357.613037 
	C216.011383,367.557281 216.183105,377.507050 215.864944,387.441101 
	C215.801697,389.415894 213.861908,391.330627 212.395264,393.389618 
	C210.940506,391.531494 209.002899,389.576447 208.958023,387.578888 
	C208.675568,375.006714 208.813797,362.425110 208.813034,349.846619 
	C208.812927,348.077179 208.813019,346.307739 208.813019,343.957642 
	C202.783585,343.957642 197.366928,343.957642 191.483337,343.948029 
	C188.312729,341.058868 188.192993,338.676300 193.130463,337.074585 
	C200.622238,336.989777 207.312851,336.942719 214.003479,336.895660 
z"/>
<path fill="#F2EFEB" opacity="1.000000" stroke="none" 
	d="
M253.620193,336.801575 
	C257.438690,337.676636 257.205475,340.446899 257.203247,343.137177 
	C257.191650,357.053223 257.197845,370.969269 257.197845,385.759460 
	C265.342041,385.759460 273.214447,385.759460 281.548035,385.667755 
	C283.660431,386.626343 285.311615,387.676636 286.962830,388.726929 
	C285.885559,390.149872 284.808258,391.572845 283.368225,393.081787 
	C274.982483,393.126434 266.959473,393.085052 258.471924,393.105957 
	C250.949142,392.639679 250.013184,391.673431 250.006866,384.739349 
	C249.994125,370.749481 249.876953,356.757202 250.147247,342.772552 
	C250.185471,340.794342 252.155930,338.853424 253.620193,336.801575 
z"/>
<path fill="#7DBAD7" opacity="1.000000" stroke="none" 
	d="
M233.479034,299.098602 
	C227.277451,298.834473 221.542068,298.532013 215.286713,297.766327 
	C214.477112,296.272827 214.187531,295.242554 213.897934,294.212311 
	C233.960098,294.157654 254.022278,294.102997 274.551147,294.109009 
	C275.008698,295.472473 274.999512,296.775299 274.983582,298.466492 
	C268.299011,298.919556 261.621124,298.984222 254.477020,299.089417 
	C247.322266,299.106750 240.633774,299.083527 233.479034,299.098602 
z"/>
<path fill="#F2EEEB" opacity="1.000000" stroke="none" 
	d="
M306.592285,336.934204 
	C307.673859,338.873901 308.902069,340.813965 308.923279,342.767120 
	C309.085388,357.702911 309.056946,372.641602 308.951111,387.578430 
	C308.939087,389.275452 308.081543,390.966492 307.313690,392.928528 
	C303.021240,393.665802 301.787079,391.688690 301.813599,387.931396 
	C301.921448,372.648743 301.877533,357.364868 301.844452,342.081543 
	C301.837921,339.061890 302.438080,336.720062 306.592285,336.934204 
z"/>
<path fill="#37A3CF" opacity="1.000000" stroke="none" 
	d="
M213.546906,294.123657 
	C214.187531,295.242554 214.477112,296.272827 214.908264,297.593262 
	C214.699890,300.477600 214.078262,303.068604 214.048065,305.666412 
	C213.930695,315.767212 214.001129,325.870239 214.002579,336.434021 
	C207.312851,336.942719 200.622238,336.989777 193.467743,336.967224 
	C192.997772,316.540222 192.991684,296.182770 192.978088,275.345886 
	C200.530991,268.449127 201.428406,262.856262 196.209534,254.130600 
	C196.490036,251.296524 196.955490,249.172806 196.965775,247.046875 
	C197.032501,233.250961 196.936844,219.453964 197.070251,205.659012 
	C197.089722,203.646332 198.047348,201.642700 198.570877,199.634888 
	C203.033783,205.105560 207.496674,210.576233 211.891266,216.764069 
	C211.548691,219.595184 211.052795,221.707520 211.037308,223.823364 
	C210.957214,234.760223 210.871552,245.699966 211.039841,256.634827 
	C211.179611,265.718048 211.668625,274.795929 212.002930,283.876160 
	C206.748901,288.101471 207.141968,291.448730 213.546906,294.123657 
z"/>
<path fill="#45B2D5" opacity="1.000000" stroke="none" 
	d="
M171.004211,385.462646 
	C162.937698,385.924957 154.868240,385.924957 146.495621,385.924957 
	C146.495621,380.075470 146.495621,374.669312 146.495621,368.448242 
	C154.398422,368.448242 162.275925,368.448242 170.609985,368.583923 
	C171.044800,374.146515 171.023041,379.573425 171.004211,385.462646 
z"/>
<path fill="#45B3D5" opacity="1.000000" stroke="none" 
	d="
M170.036926,361.019531 
	C163.094360,361.545166 156.138382,361.740479 149.187347,361.628174 
	C148.186111,361.612000 146.402313,360.160522 146.353790,359.296173 
	C146.078308,354.389984 146.220398,349.460388 146.220398,344.024658 
	C154.245728,344.024658 161.664352,344.024658 169.548462,344.091614 
	C170.017639,349.635895 170.021362,355.113220 170.036926,361.019531 
z"/>
<path fill="#F1EEEA" opacity="1.000000" stroke="none" 
	d="
M236.917450,206.051514 
	C233.688416,202.242493 230.459381,198.433487 227.098267,193.955139 
	C226.874893,192.804306 226.783600,192.322784 226.710846,191.416336 
	C226.675186,188.730759 226.620972,186.470123 226.637909,183.785110 
	C227.251617,180.253052 226.118454,178.777664 222.801315,179.013779 
	C220.215057,179.197861 217.606644,179.070847 215.008087,179.082092 
	C213.078033,176.663025 211.147995,174.243942 209.323608,171.457184 
	C213.982803,170.373779 218.536346,169.658081 223.548218,168.874237 
	C233.327682,169.010269 242.648834,169.214462 252.424622,169.566833 
	C252.964539,172.449081 253.049805,175.183151 252.549805,178.373230 
	C248.344894,178.903946 244.716919,179.162643 241.108093,178.998993 
	C237.830414,178.850327 236.812927,180.168839 236.878357,183.329346 
	C237.035080,190.900421 236.921768,198.477097 236.917450,206.051514 
z"/>
<path fill="#F1EDEA" opacity="1.000000" stroke="none" 
	d="
M155.967239,258.005554 
	C158.262985,258.005554 160.087982,258.005554 162.320923,258.005554 
	C162.320923,220.931610 162.320923,184.087906 162.320923,146.787384 
	C158.336151,146.787384 154.533752,146.830246 150.732788,146.775223 
	C146.981796,146.720963 143.973206,145.404984 144.053040,141.109192 
	C144.128067,137.070938 146.986343,135.886536 150.582535,135.961975 
	C150.749054,135.965469 150.915802,135.963760 151.082367,135.960388 
	C170.614868,135.565735 170.573914,135.598572 182.822128,150.862381 
	C207.527802,181.650772 232.280533,212.401428 257.026367,243.157562 
	C257.899475,244.242737 258.906097,245.220474 260.376617,246.820847 
	C260.376617,213.058899 260.376617,180.179871 260.376617,146.789856 
	C256.484833,146.789856 252.858383,146.816238 249.232483,146.782608 
	C245.402817,146.747101 241.962311,145.830048 242.008667,141.157288 
	C242.052460,136.741211 245.307510,135.941589 248.989288,135.950775 
	C260.319244,135.979004 271.649323,135.980988 282.979248,135.949615 
	C286.669220,135.939407 289.923340,136.764465 289.963196,141.159058 
	C290.005371,145.810150 286.563293,146.750946 282.727417,146.783310 
	C279.101868,146.813904 275.475830,146.789871 271.307465,146.789871 
	C271.307465,149.257034 271.307465,151.214020 271.307465,153.171021 
	C271.307465,187.827499 271.307495,222.483994 271.307404,257.140472 
	C271.307404,258.306793 271.618561,259.586609 271.243896,260.616852 
	C270.348083,263.080200 269.755066,266.377075 267.896454,267.600464 
	C264.975128,269.523407 262.411621,267.142120 260.402496,264.601471 
	C254.720398,257.416046 248.933380,250.313553 243.189209,243.177185 
	C221.048004,215.669769 198.908157,188.161209 176.763199,160.656799 
	C176.049515,159.770401 175.285904,158.924179 173.869614,157.269485 
	C173.869614,191.340012 173.869614,224.444717 173.869614,258.014069 
	C177.883743,258.014069 181.843842,257.987854 185.803421,258.021729 
	C189.471573,258.053101 192.081177,259.612701 192.034592,263.559448 
	C191.987900,267.515778 189.291122,268.969116 185.659897,268.973877 
	C173.830063,268.989349 162.000122,268.999847 150.170364,268.967224 
	C146.464996,268.957001 143.964279,267.236755 144.042603,263.326477 
	C144.115158,259.703857 146.507797,258.087738 149.998169,258.018219 
	C151.830292,257.981689 153.663681,258.007721 155.967239,258.005554 
z"/>
<path fill="#3AA7D0" opacity="1.000000" stroke="none" 
	d="
M198.405396,199.338562 
	C198.047348,201.642700 197.089722,203.646332 197.070251,205.659012 
	C196.936844,219.453964 197.032501,233.250961 196.965775,247.046875 
	C196.955490,249.172806 196.490036,251.296524 196.057419,253.820435 
	C192.157562,253.088303 188.496506,251.594559 184.691742,250.952789 
	C182.142670,250.522842 180.768143,250.073242 180.778198,247.175339 
	C180.855545,224.875824 180.835144,202.575958 180.868088,180.276245 
	C180.868729,179.844955 181.149521,179.414093 181.594284,178.136612 
	C187.380630,185.403824 192.810272,192.223022 198.405396,199.338562 
z"/>
<path fill="#359FCD" opacity="1.000000" stroke="none" 
	d="
M212.468567,283.901123 
	C211.668625,274.795929 211.179611,265.718048 211.039841,256.634827 
	C210.871552,245.699966 210.957214,234.760223 211.037308,223.823364 
	C211.052795,221.707520 211.548691,219.595184 212.012558,217.072586 
	C217.049637,222.536148 221.897110,228.408371 226.853027,234.590958 
	C226.961472,251.007294 226.961472,267.113251 226.961472,283.926086 
	C221.803268,283.926086 217.368744,283.926086 212.468567,283.901123 
z"/>
<path fill="#3195C9" opacity="1.000000" stroke="none" 
	d="
M269.017975,283.262512 
	C260.367310,283.755249 251.713730,283.807251 242.575790,283.352844 
	C242.111237,273.177368 242.131027,263.508270 242.150833,253.839188 
	C246.325119,258.915070 250.499847,263.990601 254.673599,269.066925 
	C258.141937,273.285248 261.959808,276.789886 268.472443,275.551941 
	C268.926056,277.918060 268.970551,280.369904 269.017975,283.262512 
z"/>
<path fill="#2F96C9" opacity="1.000000" stroke="none" 
	d="
M253.024948,183.998123 
	C253.024948,197.601379 253.024948,211.204620 253.024948,224.807877 
	C252.714218,225.012650 252.403488,225.217438 252.092773,225.422226 
	C248.785980,221.250916 245.479202,217.079605 242.071457,212.114777 
	C241.982498,205.865265 242.002182,200.409271 242.004898,194.953293 
	C242.010330,184.028503 242.006485,184.028503 253.024948,183.998123 
z"/>
<path fill="#7EBBD7" opacity="1.000000" stroke="none" 
	d="
M253.103333,183.566208 
	C242.006485,184.028503 242.010330,184.028503 242.004898,194.953293 
	C242.002182,200.409271 241.982498,205.865265 241.943497,211.813507 
	C240.313004,210.436539 238.709503,208.567307 237.011719,206.374786 
	C236.921768,198.477097 237.035080,190.900421 236.878357,183.329346 
	C236.812927,180.168839 237.830414,178.850327 241.108093,178.998993 
	C244.716919,179.162643 248.344894,178.903946 252.425232,178.783249 
	C252.984528,180.202927 253.083130,181.668610 253.103333,183.566208 
z"/>
<path fill="#7EBBD8" opacity="1.000000" stroke="none" 
	d="
M242.015427,253.541412 
	C242.131027,263.508270 242.111237,273.177368 242.119614,283.297333 
	C238.404480,284.488708 236.717422,283.383972 236.838699,279.146057 
	C237.128906,269.005615 236.983017,258.852692 237.088211,248.219604 
	C238.735504,249.570816 240.307770,251.407211 242.015427,253.541412 
z"/>
<path fill="#82BED8" opacity="1.000000" stroke="none" 
	d="
M215.129654,179.376617 
	C217.606644,179.070847 220.215057,179.197861 222.801315,179.013779 
	C226.118454,178.777664 227.251617,180.253052 226.226074,183.746826 
	C223.502716,184.104355 221.262344,184.075790 219.021988,184.047241 
	C217.765060,182.588547 216.508133,181.129852 215.129654,179.376617 
z"/>
<path fill="#349BCA" opacity="1.000000" stroke="none" 
	d="
M219.158539,184.345230 
	C221.262344,184.075790 223.502716,184.104355 226.154922,184.171204 
	C226.620972,186.470123 226.675186,188.730759 226.476379,191.490723 
	C226.223389,191.990051 225.773483,192.189392 225.773483,192.189392 
	C223.614029,189.673996 221.454559,187.158615 219.158539,184.345230 
z"/>
<path fill="#82BED8" opacity="1.000000" stroke="none" 
	d="
M225.851349,192.461578 
	C225.773483,192.189392 226.223389,191.990051 226.457855,191.915665 
	C226.783600,192.322784 226.874893,192.804306 226.948563,193.654541 
	C226.597031,193.593430 226.263123,193.163589 225.851349,192.461578 
z"/>
</svg>